<svg width="160" height="57" fill="none" xmlns="http://www.w3.org/2000/svg"><g clip-path="url(#clip0_662_12392)"><path d="M.272 24.796c-.294-2.046.326-3.814 1.473-5.426 1.592-2.237 3.738-3.843 6.057-5.243 4.538-2.744 9.461-4.577 14.495-6.138a149.26 149.26 0 0124.921-5.356c6.669-.865 13.37-1.487 20.062-2.089 8.099-.728 16.213-.682 24.322-.138 14.505.958 28.878 2.745 42.927 6.612 6.531 1.8 12.924 3.973 18.689 7.643 2.208 1.406 4.22 3.069 5.606 5.349.889 1.463 1.342 3.042 1.108 4.791-.099-.02-.17-.017-.183-.042-1.893-3.994-5.249-6.465-8.944-8.538-5.42-3.042-11.281-4.945-17.262-6.497-9.517-2.464-19.202-3.901-28.989-4.817-9.555-.893-19.127-1.333-28.713-1.142-9.788.194-19.538.853-29.253 2.165-8.415 1.134-16.744 2.684-24.868 5.193-4.956 1.534-9.785 3.38-14.182 6.203-2.95 1.89-5.562 4.111-7.078 7.381-.017.036-.09.045-.188.09zm136.29 4.585v-2.254h20.145c2.137 0 2.904.773 2.904 2.923v1.364c0 .653-.038 1.572-.816 1.572-.27 0-.263.433-.019.433.702 0 .802.95.802 1.617 0 .823-.012 1.648-.012 2.469-.018 1.43-.898 2.368-2.32 2.371-6.676.016-13.353 0-20.03.014-.501 0-.725-.136-.725-.738 0-1.474 0-1.492 1.407-1.492 6.116 0 12.22-.017 18.332.013.812 0 1.044-.221 1.044-1.047v-1.705c0-.714-.215-.922-.915-.915-3.228.03-6.456.013-9.684.013-3.084 0-6.163.026-9.25.026-.895 0-.956-.539-.956-1.221 0-.738.17-1.101.983-1.101 6.299 0 12.561.027 18.84.011.33 0 .942-.029.942-.34v-1.602c0-.36-.524-.389-.79-.389-5.376-.013-10.751-.02-16.125-.02l-3.757-.002zm-3.299-2.401v10.064c0 1.465-.91 2.435-2.356 2.439-7.155.017-18.405.017-21.463.017-.563 0-.719-.193-.719-.75v-.596c0-.776.272-.944.956-.944 6.759.025 13.518.025 20.276 0 .452 0 .987-.103.987-.444v-1.628c0-.37-.637-.363-.938-.363-5.542-.008-11.084-.008-16.626 0-.933 0-1.869.015-2.8-.016-1.126-.035-2.067-.8-2.12-1.923-.087-1.862-.024-3.73-.024-5.68h2.246v4.048c0 1.337 0 1.337 1.324 1.337 5.994 0 11.989-.015 17.983.019.819 0 1.049-.227 1.049-1.044 0-1.203-.028-2.447-.028-3.657 0-.716.24-.892.935-.892.406.005.865.014 1.318.014zM38.907 39.888h-9.588c-1.529 0-2.457-.853-2.473-2.387-.029-2.696-.029-5.39 0-8.084.013-1.383.942-2.287 2.314-2.289 6.505-.006 13.01-.006 19.514 0 1.512 0 2.416.933 2.421 2.456.008 2.526.008 5.05 0 7.574 0 1.876-.832 2.713-2.68 2.716h-9.502l-.006.014zm.14-10.495c-3.058 0-6.102.012-9.154 0-.598 0-.86.146-.85.808.037 2.239.028 4.478.01 6.716 0 .546.178.752.732.75 6.101-.012 12.204-.012 18.306 0 .547 0 .746-.183.743-.738-.016-2.238-.016-4.477.022-6.716.01-.631-.192-.832-.824-.827-2.995.022-5.99.007-8.984.007zm53.995-2.266h9.927c1.894 0 2.739.842 2.749 2.75v2.979c-.022 1.705-.874 2.566-2.569 2.568H85.33c-1.128 0-1.13 0-1.13 1.105 0 .902.009 1.802.009 2.728 0 .566-.17.738-.736.738a5.748 5.748 0 00-.593 0c-.807 0-.967-.19-.96-.944.037-3.66.032-7.319 0-10.978 0-.721.17-.975.943-.965 3.398.046 6.787.02 10.182.02l-.003-.001zm10.397 2.898c0-.426-.39-.629-.807-.629-5.823 0-11.645-.004-17.469-.012h-.397a.626.626 0 00-.546.587c0 .745.017 1.499.017 2.216 0 .887.184 1.035.99 1.024 5.455-.033 10.91-.017 16.366-.017h1.267a.54.54 0 00.554-.55c0-1.048.025-1.49.025-2.62v.001zM23.97 37.658c.111 0 .117.14.117.208 0 2.007-.02 2.014-1.762 2.014H2.81c-2.039 0-2.798-.774-2.803-2.836C.002 34.63 0 32.217 0 29.81c0-1.814.858-2.675 2.642-2.677h21.144c.142 0 .144.152.144.218 0 2.017.053 2.03-1.753 2.03H3.68c-1.655 0-1.419-.133-1.429 1.473-.012 1.9 0 3.802 0 5.702 0 1.098 0 1.1 1.137 1.1H23.97v.003zm55.521-10.524c-.997 1.95-1.869 3.724-2.814 5.456-.384.71-.441 1.279-.01 2.024.975 1.685 1.83 3.44 2.82 5.33-.868 0-1.59.041-2.301-.027-.206-.019-.439-.326-.561-.553a117.337 117.337 0 01-2.03-3.921c-.245-.503-.558-.682-1.117-.682-5.598.017-11.196.017-16.792 0-.68 0-.85.242-.85.892 0 1.176.024 2.327.024 3.486 0 .64-.107.83-.816.83h-.085c-1.359 0-1.38-.035-1.38-1.348V27.282h2.274v3.922c0 1.349 0 1.349 1.312 1.349 5.343 0 10.686-.02 16.028.02.809 0 1.215-.27 1.529-.982.562-1.267 1.24-2.485 1.818-3.752.248-.545.576-.77 1.169-.716.518.048 1.053.01 1.782.01zm.659 17.739H5.682a.397.397 0 01-.377-.394.4.4 0 01.367-.403h.657c49.196 0 98.392.005 147.587.016.357 0 1.02-.041 1.02.464 0 .34-.664.301-1.037.301-24.583.017-49.166.023-73.749.016z" fill="#E4332C"/><path d="M154.824 4.713l1.605 2.519h1.1l-1.773-2.519h-.932zm-1.216-2.905v5.424h.919V1.808h-.919zm.543.788h1.087c.319 0 .574.077.764.232.198.146.297.366.297.659 0 .292-.099.516-.297.671-.19.155-.445.233-.764.233h-1.087v.749h1.139c.587 0 1.057-.151 1.41-.452.363-.31.544-.72.544-1.227 0-.49-.181-.887-.544-1.188-.353-.31-.823-.465-1.41-.465h-1.139v.788zm-2.756 2.053c0-.577.099-1.106.298-1.588.198-.491.474-.917.828-1.279a3.87 3.87 0 011.255-.84 4.088 4.088 0 011.566-.296c.561 0 1.078.099 1.553.297.483.198.901.478 1.255.84.362.36.642.787.841 1.278.198.482.297 1.011.297 1.588a4.24 4.24 0 01-.297 1.601 3.84 3.84 0 01-.841 1.266 3.698 3.698 0 01-1.255.84 3.994 3.994 0 01-1.553.296 4.088 4.088 0 01-1.566-.297 3.87 3.87 0 01-1.255-.84 3.916 3.916 0 01-.828-1.265 4.22 4.22 0 01-.298-1.601zm-.711 0c0 .671.116 1.291.349 1.86a4.74 4.74 0 00.983 1.485c.423.413.919.736 1.488.968a4.98 4.98 0 001.838.336c.664 0 1.277-.112 1.837-.336a4.428 4.428 0 001.475-.968 4.47 4.47 0 00.984-1.485 4.714 4.714 0 00.362-1.86c0-.672-.121-1.291-.362-1.86a4.328 4.328 0 00-.984-1.472 4.18 4.18 0 00-1.475-.968A4.747 4.747 0 00155.342 0c-.656 0-1.268.116-1.838.349a4.324 4.324 0 00-1.488.968 4.585 4.585 0 00-.983 1.472 4.854 4.854 0 00-.349 1.86zM24.566 50.93l2.714 4.847 2.713-4.846.62 5.618h1.011l-1.012-8.73-3.332 6.022-3.333-6.023-1.011 8.73h1.011l.62-5.617zm9.398 5.619h4.2v-.95h-4.2v.95zm0-7.365h4.2v-.95h-4.2v.95zm0 3.326h3.963v-.95h-3.963v.95zm-.56-4.276v8.315h1.012v-8.315h-1.012zm7.46 4.276h1.702c.357 0 .67.06.94.178.278.111.492.282.643.511.159.23.238.515.238.855 0 .341-.08.626-.238.856-.15.23-.365.404-.642.522a2.46 2.46 0 01-.94.167h-1.703v.95h1.702c.54 0 1.02-.1 1.44-.297a2.46 2.46 0 001.012-.867c.254-.38.381-.824.381-1.33 0-.515-.127-.959-.38-1.33a2.378 2.378 0 00-1.013-.856c-.42-.206-.9-.309-1.44-.309h-1.702v.95zm-.56-4.276v8.315h1.013v-7.365h3.451v-.95h-4.463zm7.438 8.315h4.201v-.95h-4.201v.95zm0-7.365h4.201v-.95h-4.201v.95zm0 3.326h3.963v-.95h-3.963v.95zm-.56-4.276v8.315h1.012v-8.315h-1.012zm12.828 0h-5.653v5.227c0 .316-.024.61-.071.879-.048.269-.12.506-.215.712-.095.198-.21.353-.345.464a.727.727 0 01-.476.166v.867c.452 0 .83-.13 1.13-.392.31-.261.54-.61.691-1.045.159-.436.238-.907.238-1.414v-4.514H59v7.365h1.011v-8.315zm2.264 0v8.315h1.012v-8.315h-1.012zm.56 4.276h1.702c.357 0 .67.06.94.178.278.111.492.282.642.511.16.23.239.515.239.855 0 .341-.08.626-.239.856-.15.23-.364.404-.642.522-.27.111-.583.167-.94.167h-1.702v.95h1.702c.54 0 1.02-.1 1.44-.297a2.46 2.46 0 001.011-.867c.254-.38.381-.824.381-1.33 0-.515-.127-.959-.38-1.33a2.378 2.378 0 00-1.012-.856c-.42-.206-.9-.309-1.44-.309h-1.702v.95zm14.766-.475l.06-1.366-4.523 4.93-.06 1.366 4.523-4.93zm-3.57-.95h-.953v5.88l.952-1.307v-4.573zm3.63-.416l-.953 1.307v4.573h.952v-5.88zm7.34.261l2.713 4.847 2.714-4.846.619 5.618h1.011l-1.011-8.73-3.333 6.022-3.332-6.023-1.012 8.73h1.012L85 50.932zm9.995 3.124H99.4l-.357-.95h-3.69l-.357.95zm2.178-3.943l1.429 3.35.095.237 1.214 2.85h1.131l-3.869-8.73-3.868 8.73h1.13l1.239-2.921.095-.214 1.404-3.302zm3.569-.927h2.142v7.365h1.012v-7.365h2.142v-.95h-5.296v.95zm6.723-.95v8.315h1.012v-8.315h-1.012zm.559.95h1.702c.357 0 .671.06.94.179.278.11.492.28.643.51.159.23.238.515.238.856 0 .34-.079.625-.238.855a1.4 1.4 0 01-.643.522 2.454 2.454 0 01-.94.167h-1.702v.95h1.702c.54 0 1.02-.099 1.44-.297a2.457 2.457 0 001.012-.867c.254-.38.381-.824.381-1.33 0-.515-.127-.959-.381-1.33a2.376 2.376 0 00-1.012-.856c-.42-.206-.9-.309-1.44-.309h-1.702v.95zm6.279 4.87h4.404l-.357-.95h-3.69l-.357.95zm2.178-3.943l1.428 3.35.095.237 1.214 2.85h1.131l-3.868-8.73-3.868 8.73h1.131l1.237-2.921.096-.214 1.404-3.302zm5.474 2.281c0-.484.083-.923.249-1.319a3.12 3.12 0 01.679-1.033 3.18 3.18 0 01.988-.677 2.98 2.98 0 011.178-.238c.397 0 .758.051 1.083.154.333.103.635.25.905.44.269.182.5.396.69.641v-1.33a3.55 3.55 0 00-1.143-.689c-.412-.15-.924-.226-1.535-.226-.579 0-1.123.107-1.631.321a3.94 3.94 0 00-1.321.891c-.381.38-.678.831-.892 1.354a4.452 4.452 0 00-.322 1.71c0 .618.107 1.188.322 1.711.214.523.511.978.892 1.366.381.38.822.677 1.321.89a4.302 4.302 0 001.631.31c.611 0 1.123-.076 1.535-.226a3.54 3.54 0 001.143-.689v-1.33a3.2 3.2 0 01-.69.653c-.27.182-.572.325-.905.428a3.573 3.573 0 01-1.083.154c-.413 0-.805-.08-1.178-.238a3.281 3.281 0 01-.988-.665 3.297 3.297 0 01-.679-1.033 3.467 3.467 0 01-.249-1.33zm14.098-4.158v8.315h1.012v-8.315h-1.012zm-6.189 0v8.315h1.012v-8.315h-1.012zm.56 4.276h1.702c.357 0 .67.06.94.178.278.111.492.282.643.511.158.23.238.515.238.855 0 .341-.08.626-.238.856a1.4 1.4 0 01-.643.522 2.46 2.46 0 01-.94.167h-1.702v.95h1.702c.539 0 1.019-.1 1.44-.297a2.462 2.462 0 001.011-.867c.254-.38.381-.824.381-1.33 0-.515-.127-.959-.381-1.33a2.38 2.38 0 00-1.011-.856c-.421-.206-.901-.309-1.44-.309h-1.702v.95z" fill="#3D4248"/></g><defs><clipPath id="clip0_662_12392"><path fill="#fff" d="M0 0h160v57H0z"/></clipPath></defs></svg>