<svg width="40" height="45" fill="none" xmlns="http://www.w3.org/2000/svg"><g clip-path="url(#clip0_1070_12789)"><mask id="a" style="mask-type:luminance" maskUnits="userSpaceOnUse" x="0" y="0" width="40" height="45"><path d="M40 0H0v45h40V0z" fill="#fff"/></mask><g mask="url(#a)" fill-rule="evenodd" clip-rule="evenodd"><path d="M24.809 39.418C33.532 37.265 40 29.388 40 20 40 8.954 31.046 0 20 0S0 8.954 0 20c0 9.388 6.468 17.265 15.191 19.418.613.22 1.884.89 3.309 2.896.508.715.853 1.3 1.083 1.74.14.267.695.267.834 0 .23-.44.575-1.025 1.083-1.74 1.425-2.005 2.696-2.676 3.309-2.896z" fill="#E4332C"/><path d="M15.055 8.1c-1.965 0-3.391 1.743-3.391 3.678v4.22c-2.062.04-3.562 1.886-3.562 3.947 0 1.412.713 2.69 1.786 3.393v3.553c0 1.166.867 2.289 2.145 2.289h.148l-.975 2.914 1.707.571 1.166-3.485h11.845l1.166 3.485 1.707-.571-.975-2.914h.022c1.277 0 2.145-1.123 2.145-2.289v-3.474c1.15-.684 1.913-2.007 1.913-3.472 0-2.06-1.501-3.906-3.563-3.947v-4.22c0-1.935-1.426-3.678-3.39-3.678h-9.895zm-1.591 3.678c0-1.13.8-1.878 1.59-1.878h9.895c.791 0 1.59.749 1.59 1.877v4.694c-1.158.684-1.894 2.02-1.894 3.474v3.473h-9.286l.008-3.472v-.001c0-1.457-.743-2.792-1.903-3.475v-4.692zm-3.562 8.167c0-1.279.907-2.148 1.832-2.148s1.832.87 1.833 2.148l-.012 5.273h12.89v-5.273c0-1.282.903-2.148 1.824-2.148.925 0 1.833.87 1.833 2.148 0 1.002-.608 1.802-1.321 2.062l-.592.215v4.67c0 .356-.237.488-.345.488H12.033c-.108 0-.345-.132-.345-.489v-4.68l-.545-.234c-.676-.29-1.241-1.077-1.241-2.032z" fill="#fff"/></g></g><defs><clipPath id="clip0_1070_12789"><path fill="#fff" d="M0 0h40v45H0z"/></clipPath></defs></svg>