<?xml version="1.0" encoding="utf-8"?><svg viewBox="0 0 42 35" xmlns="http://www.w3.org/2000/svg" xmlns:xlink="http://www.w3.org/1999/xlink"><style>:root>svg{display:none}:root>svg:target{display:block}</style><svg fill="none" viewBox="0 0 42 35" id="icon-3dmodel" xmlns="http://www.w3.org/2000/svg"><path d="M9.664 7.478v12.955L21 26.911M9.664 7.478 21 1l11.336 6.478m-22.672 0L21 13.956m11.336-6.478v12.955L21 26.911M32.336 7.478 21 13.956m0 12.955V13.955M6.742 15.9C3.19 17.659 1 20.076 1 22.74c0 5.389 8.954 9.757 20 9.757 5.334 0 10.18-1.018 13.765-2.679m.493-13.92C38.81 17.659 41 20.076 41 22.74c0 2.078-1.332 4.004-3.601 5.587m-2.634 1.491-5.263 4.541m5.263-4.54-6.963-.358" stroke="currentColor"/></svg><svg fill="none" viewBox="0 0 22 15" id="icon-arr-left" xmlns="http://www.w3.org/2000/svg"><path d="M22 7.5H1m0 0L7.192 14M1 7.5 7.192 1" stroke="currentColor"/></svg><svg fill="none" viewBox="0 0 22 15" id="icon-arr-right" xmlns="http://www.w3.org/2000/svg"><path d="M0 7.5h21m0 0L14.808 14M21 7.5 14.808 1" stroke="currentColor"/></svg><svg viewBox="0 0 14 14" id="icon-cross" xmlns="http://www.w3.org/2000/svg"><path fill-rule="evenodd" clip-rule="evenodd" d="m8.414 7 5.293-5.293A.999.999 0 1 0 12.293.293L7 5.586 1.707.293A.999.999 0 1 0 .293 1.707L5.586 7 .293 12.293a.999.999 0 1 0 1.414 1.414L7 8.414l5.293 5.293a.997.997 0 0 0 1.414 0 .999.999 0 0 0 0-1.414L8.414 7Z" fill="currentColor"/></svg><svg fill="none" viewBox="0 0 42 33" id="icon-mattress" xmlns="http://www.w3.org/2000/svg"><path d="M41 24.871v7.097H1V24.87m1.533-4.435L1 22.936h40l-1.533-2.5m-36.934-4.92L1 18.016h40l-1.533-2.5M4.548 24.871v4.839m32.904-4.839v4.839m-13.71-4.839v4.839m-13.71-4.839v4.839M7.29 24.87v4.839m5.484-4.839v4.839m5.484-4.839v4.839m8.226-4.839v4.839m8.226-4.839v4.839m-2.742-4.839v4.839m-2.742-4.839v4.839M21 24.87v4.839m-5.484-4.839v4.839M8.42 1h25.162L41 13.097H1L8.42 1Z" stroke="currentColor"/></svg><svg fill="none" viewBox="0 0 32 32" id="icon-telegram" xmlns="http://www.w3.org/2000/svg"><g clip-path="url(#fa)"><path d="M16 31.238c8.416 0 15.238-6.822 15.238-15.238S24.416.762 16 .762.762 7.584.762 16 7.584 31.238 16 31.238Z" fill="#039BE5"/><path d="m7.638 15.566 14.865-5.593c.69-.243 1.293.164 1.069 1.182l.001-.001-2.53 11.637c-.188.825-.69 1.025-1.393.636l-3.855-2.772-1.859 1.748c-.206.2-.379.37-.777.37l.273-3.828 7.144-6.298c.31-.267-.07-.417-.48-.152L11.27 17.92 7.463 16.76c-.826-.256-.844-.806.175-1.195Z" fill="#fff"/></g><defs><clipPath id="fa"><path fill="#fff" d="M0 0h32v32H0z"/></clipPath></defs></svg><svg fill="none" viewBox="0 0 15 22" id="icon-up" xmlns="http://www.w3.org/2000/svg"><path d="M7.5 22V1m0 0L14 7.192M7.5 1 1 7.192" stroke="currentColor"/></svg><svg fill="none" viewBox="0 0 32 32" id="icon-viber" xmlns="http://www.w3.org/2000/svg"><g clip-path="url(#ha)"><path d="M19.2 0h-6.4C6.624 0 1.6 5.024 1.6 11.2V16c0 4.34 2.5 8.273 6.4 10.125v5.348c0 .464.58.704.908.376l4.648-4.644H19.2c6.176 0 11.2-5.024 11.2-11.204v-4.8C30.4 5.023 25.377 0 19.2 0Zm4.192 20.993-1.62 1.584c-1.704 1.668-6.152-.236-10.072-4.24-3.92-4.008-5.64-8.496-4.02-10.164L9.3 6.589c.596-.584 1.608-.572 2.276.024L13.912 9c.832.852.48 2.28-.62 2.608-.76.244-1.276 1.08-1.032 1.84.404 1.776 2.656 3.996 4.336 4.436.756.176 1.604-.236 1.868-.992.348-1.092 1.784-1.416 2.62-.56l2.332 2.384c.584.596.576 1.608-.024 2.276ZM17.456 7.6c-.16 0-.32.008-.476.028a.534.534 0 0 1-.116-1.06 5.338 5.338 0 0 1 5.892 5.892.54.54 0 0 1-.588.472.54.54 0 0 1-.472-.588 4.275 4.275 0 0 0-4.24-4.744Zm3.2 4.268a.538.538 0 0 1-.536.532.537.537 0 0 1-.532-.532 2.134 2.134 0 0 0-2.132-2.132.535.535 0 1 1 0-1.068c1.764 0 3.2 1.436 3.2 3.2Zm4.068 1.724a.543.543 0 0 1-.66.393.542.542 0 0 1-.38-.64 6.409 6.409 0 0 0-6.724-7.856.534.534 0 0 1-.08-1.064c.192-.017.384-.025.576-.025 4.116 0 7.468 3.352 7.468 7.468 0 .58-.068 1.16-.2 1.724Z" fill="#665CAC"/></g><defs><clipPath id="ha"><path fill="#fff" d="M0 0h32v32H0z"/></clipPath></defs></svg><svg fill="none" viewBox="0 0 32 32" id="icon-whatsapp" xmlns="http://www.w3.org/2000/svg"><path d="M16.003.762h-.007C8.014.762 1.523 7.254 1.523 15.238c0 3.167 1.021 6.102 2.756 8.485L2.475 29.1l5.565-1.78a14.351 14.351 0 0 0 7.963 2.393c7.982 0 14.473-6.494 14.473-14.476 0-7.982-6.49-14.476-14.473-14.476Z" fill="#4CAF50"/><path d="M24.081 20.815c-.341.941-1.696 1.722-2.777 1.95-.74.154-1.706.277-4.957-1.04-4.16-1.683-6.838-5.81-7.047-6.078-.2-.267-1.68-2.185-1.68-4.168 0-1.984 1.03-2.95 1.446-3.364.342-.34.906-.496 1.447-.496.176 0 .333.009.475.016.415.017.624.041.898.682.342.803 1.173 2.787 1.273 2.99.1.204.201.48.06.749-.133.276-.25.399-.459.634-.208.235-.406.414-.615.667-.191.219-.407.454-.167.86.241.397 1.072 1.722 2.297 2.787 1.58 1.373 2.86 1.812 3.319 1.998.341.139.748.106.998-.153.316-.334.707-.887 1.105-1.43.284-.391.64-.44 1.016-.301.382.13 2.404 1.105 2.82 1.307.416.204.69.301.79.472.1.171.1.974-.242 1.918Z" fill="#FAFAFA"/></svg></svg>